<svg version="1.1" xmlns="http://www.w3.org/2000/svg" xmlns:xlink="http://www.w3.org/1999/xlink" width="48" height="48"><defs><linearGradient x1="7.70247" y1="7.70247" x2="75.6833" y2="75.6833" gradientUnits="userSpaceOnUse" id="color-1"><stop offset="0" stop-color="#000000" stop-opacity="0"></stop><stop offset="1" stop-color="#000000" stop-opacity="0"></stop></linearGradient><filter id="dropshadow-base"><feColorMatrix type="matrix" values="0 0 0 0 0  0 0 0 0 0  0 0 0 0 0  0 0 0 .8 0"></feColorMatrix> <feOffset dx="0" dy="1"></feOffset> <feGaussianBlur stdDeviation="1"></feGaussianBlur> <feComposite in="SourceGraphic"></feComposite></filter><filter id="dropshadow-banner" x="-10%" y="-10%" width="120%" height="130%"><feColorMatrix type="matrix" values="0 0 0 0 0  0 0 0 0 0  0 0 0 0 0  0 0 0 .4 0"></feColorMatrix> <feOffset dx="0" dy="1"></feOffset> <feGaussianBlur stdDeviation="0.5"></feGaussianBlur> <feComposite in="SourceGraphic"></feComposite></filter></defs><g fill="none" fill-rule="nonzero" stroke="none" stroke-width="none" stroke-linecap="butt" stroke-linejoin="miter" stroke-miterlimit="10" stroke-dasharray="" stroke-dashoffset="0" font-family="none" font-weight="none" font-size="none" text-anchor="none" style="mix-blend-mode: normal"><path d="M7,43c-1.10457,0 -2,-0.89543 -2,-2v-34c0,-1.10457 0.89543,-2 2,-2h34c1.10457,0 2,0.89543 2,2v34c0,1.10457 -0.89543,2 -2,2z" id="base 1 5" fill="#0069ff" stroke-width="1"></path><path d="M8.03166,39.96834c-0.20339,-0.20339 -0.32919,-0.48438 -0.32919,-0.79477v-10.11573c0,-0.62077 0.50319,-1.12396 1.12396,-1.12396h1.12402v-1.12396c0,-0.62077 0.50319,-1.12396 1.12396,-1.12396l0.65836,0l-3.70112,-3.70112c-0.20339,-0.20339 -0.32919,-0.48438 -0.32919,-0.79477v-10.11566c0,-0.62084 0.50319,-1.12402 1.12396,-1.12402h1.12402v-1.12396c-0.00007,-0.62077 0.50312,-1.12396 1.12396,-1.12396h10.11573c0.31039,0 0.59138,0.1258 0.79477,0.32919c0,0 0,0 0,0l1.91873,1.91873h15.26993c0.31039,0 0.59138,0.1258 0.79477,0.32919c0,0 0,0 0,0l3.03166,3.03166v27.68876c0,1.10457 -0.89543,2 -2,2l-29.93668,0z" fill="url(#color-1)" stroke-width="1"></path><path transform="translate(-15.11407,-15.11407) scale(1.62975,1.62975)" d="M33.31035,34h-18.6207c-0.3809,0 -0.68965,-0.30875 -0.68965,-0.68965v-6.20691c0,-0.3809 0.30875,-0.68965 0.68965,-0.68965h0.68969v-0.68965c0,-0.3809 0.30875,-0.68965 0.68965,-0.68965h2.75859l0,-2.06898h-4.13793c-0.3809,0 -0.68965,-0.30875 -0.68965,-0.68965v-6.20687c0,-0.38094 0.30875,-0.68969 0.68965,-0.68969h0.68969v-0.68965c-0.00004,-0.3809 0.30871,-0.68965 0.68965,-0.68965h6.20691c0.3809,0 0.68965,0.30875 0.68965,0.68965v0.68965l10.3448,0c0.3809,0 0.68965,0.30875 0.68965,0.68965v6.20691c0,0.3809 -0.30875,0.68965 -0.68965,0.68965l-13.79312,0v2.06898h2.75867c0.3809,0 0.68965,0.30875 0.68965,0.68965v0.68965h10.3448c0.3809,0 0.68965,0.30875 0.68965,0.68965v6.20691c0,0.3809 -0.30875,0.68965 -0.68965,0.68965z" fill="none" stroke-width="0"></path><g id="Layer_1 2" stroke-width="1"><path d="M39.17357,40.29753h-30.34715c-0.62077,0 -1.12396,-0.50319 -1.12396,-1.12396v-10.11574c0,-0.62077 0.50319,-1.12396 1.12396,-1.12396h30.34715c0.62077,0 1.12396,0.50319 1.12396,1.12396v10.11574c0,0.62077 -0.50319,1.12396 -1.12396,1.12396z" fill="#e4eaf8"></path><g fill="#707487"><path d="M35.23969,31.30581h-10.11574c-0.31061,0 -0.56201,-0.25166 -0.56201,-0.56201c0,-0.31035 0.25134,-0.56201 0.56201,-0.56201h10.11574c0.31061,0 0.56201,0.25166 0.56201,0.56201c0,0.31035 -0.2514,0.56201 -0.56201,0.56201z"></path><path d="M37.48761,35.80164h-12.36365c-0.31061,0 -0.56201,-0.25166 -0.56201,-0.56201c0,-0.31035 0.25134,-0.56201 0.56201,-0.56201h12.36365c0.31061,0 0.56201,0.25166 0.56201,0.56201c0,0.31035 -0.25134,0.56201 -0.56201,0.56201z"></path></g><g fill="#7f8499"><path d="M37.48761,38.04962h-12.36365c-0.31061,0 -0.56201,-0.25134 -0.56201,-0.56201c0,-0.31061 0.25134,-0.56201 0.56201,-0.56201h12.36365c0.31061,0 0.56201,0.25134 0.56201,0.56201c0,0.31067 -0.25134,0.56201 -0.56201,0.56201z"></path><path d="M27.37193,33.55373h-2.24791c-0.31061,0 -0.56201,-0.25166 -0.56201,-0.56201c0,-0.31035 0.25134,-0.56201 0.56201,-0.56201h2.24791c0.31061,0 0.56201,0.25166 0.56201,0.56201c-0.00006,0.31035 -0.2514,0.56201 -0.56201,0.56201z"></path><path d="M37.48761,33.55373h-7.86776c-0.31061,0 -0.56201,-0.25166 -0.56201,-0.56201c0,-0.31035 0.25134,-0.56201 0.56201,-0.56201h7.86776c0.31061,0 0.56201,0.25166 0.56201,0.56201c0,0.31035 -0.25134,0.56201 -0.56201,0.56201z"></path></g><path d="M39.17357,22.31403h-30.34715c-0.62077,0 -1.12396,-0.50319 -1.12396,-1.12396v-10.11567c0,-0.62083 0.50319,-1.12402 1.12396,-1.12402h30.34715c0.62077,0 1.12396,0.50319 1.12396,1.12396v10.11574c0,0.62077 -0.50319,1.12396 -1.12396,1.12396z" fill="#e4eaf8"></path><g fill="#d5dced"><path d="M21.19008,21.19008h-10.11567c-1.24148,0 -2.24791,-1.00644 -2.24791,-2.24791v-8.99178h14.61156v8.99172c-0.00006,1.24154 -1.0065,2.24798 -2.24798,2.24798z"></path><path d="M21.19008,39.17357h-10.11567c-1.24148,0 -2.24791,-1.00644 -2.24791,-2.24791v-8.99178h14.61156v8.99172c-0.00006,1.24154 -1.0065,2.24798 -2.24798,2.24798z"></path></g><g fill="#707487"><path d="M35.23969,13.32232h-10.11574c-0.31061,0 -0.56201,-0.25166 -0.56201,-0.56201c0,-0.31035 0.25134,-0.56201 0.56201,-0.56201h10.11574c0.31061,0 0.56201,0.25166 0.56201,0.56201c-0.00006,0.31035 -0.2514,0.56201 -0.56201,0.56201z"></path><path d="M37.48761,17.81821h-12.36365c-0.31061,0 -0.56201,-0.25166 -0.56201,-0.56201c0,-0.31035 0.25134,-0.56201 0.56201,-0.56201h12.36365c0.31061,0 0.56201,0.25166 0.56201,0.56201c0,0.31035 -0.25134,0.56201 -0.56201,0.56201z"></path></g><g fill="#7f8499"><path d="M37.48761,20.06612h-12.36365c-0.31061,0 -0.56201,-0.25134 -0.56201,-0.56201c0,-0.31061 0.25134,-0.56201 0.56201,-0.56201h12.36365c0.31061,0 0.56201,0.25134 0.56201,0.56201c0,0.31067 -0.25134,0.56201 -0.56201,0.56201z"></path><path d="M27.37193,15.57023h-2.24791c-0.31061,0 -0.56201,-0.25166 -0.56201,-0.56201c0,-0.31035 0.25134,-0.56201 0.56201,-0.56201h2.24791c0.31061,0 0.56201,0.25166 0.56201,0.56201c-0.00006,0.31042 -0.2514,0.56201 -0.56201,0.56201z"></path><path d="M37.48761,15.57023h-7.86776c-0.31061,0 -0.56201,-0.25166 -0.56201,-0.56201c0,-0.31035 0.25134,-0.56201 0.56201,-0.56201h7.86776c0.31061,0 0.56201,0.25166 0.56201,0.56201c0,0.31042 -0.25134,0.56201 -0.56201,0.56201z"></path></g><path d="M15.57023,26.24791v-6.7438h1.12396v6.7438z" fill="#afb9d2"></path><path d="M15.57023,21.19008v-1.68597h1.12396v1.68597z" fill="#959cb5"></path><path d="M21.19008,20.06612h-10.11567c-0.62077,0 -1.12396,-0.50319 -1.12396,-1.12396v-10.11574c-0.00006,-0.62077 0.50312,-1.12396 1.12396,-1.12396h10.11574c0.62077,0 1.12396,0.50319 1.12396,1.12396v10.11574c-0.00006,0.62077 -0.50325,1.12396 -1.12402,1.12396z" fill="#ff5050"></path><path d="M19.64461,13.32232c0,-1.93673 -1.57564,-3.51237 -3.51237,-3.51237c-1.93673,0 -3.51237,1.57564 -3.51237,3.51237v1.12396c0,1.93673 1.57564,3.51237 3.51237,3.51237c0.71486,0 1.37969,-0.21581 1.93508,-0.58397l0.37822,0.37822c0.13719,0.13719 0.31666,0.20582 0.49663,0.20582c0.17997,0 0.35944,-0.06863 0.49663,-0.20582c0.27438,-0.27438 0.27438,-0.71894 0,-0.99339l-0.37822,-0.37822c0.36822,-0.55539 0.58404,-1.22021 0.58404,-1.93508zM17.75283,15.0736c-0.27438,-0.27438 -0.71894,-0.27438 -0.99339,0c-0.27445,0.27438 -0.27438,0.71894 0,0.99339l0.27559,0.27559c-0.27477,0.13146 -0.5785,0.21117 -0.90286,0.21117c-1.16184,0 -2.10741,-0.94532 -2.10741,-2.10741v-1.12402c0,-1.16209 0.94564,-2.10741 2.10741,-2.10741c1.16177,0 2.10741,0.94532 2.10741,2.10741v1.12396c0,0.32436 -0.07971,0.62816 -0.21117,0.90292z" fill="#ffffff"></path><path d="M21.19008,38.04962h-10.11567c-0.62077,0 -1.12396,-0.50319 -1.12396,-1.12396v-10.11574c0,-0.62077 0.50319,-1.12396 1.12396,-1.12396h10.11574c0.62077,0 1.12396,0.50319 1.12396,1.12396v10.11574c-0.00006,0.62077 -0.50325,1.12396 -1.12402,1.12396z" fill="#7df5a5"></path><path d="M19.62373,35.06952l-1.5263,-6.1061c-0.17278,-0.6887 -0.78916,-1.17005 -1.49931,-1.17005h-0.93189c-0.71015,0 -1.32647,0.48135 -1.49937,1.17062l-1.5263,6.10553c-0.09384,0.37599 0.13503,0.75733 0.51146,0.85174c0.37484,0.09441 0.75733,-0.13445 0.85174,-0.51146l0.28852,-1.15362h3.6798l0.28839,1.15362c0.08015,0.31939 0.36606,0.53234 0.68106,0.53234c0.05653,0 0.11357,-0.00662 0.17068,-0.02088c0.37656,-0.09441 0.60543,-0.47575 0.51153,-0.85174zM14.64363,32.85121l0.88662,-3.54637c0.01541,-0.06258 0.07137,-0.10651 0.13611,-0.10651h0.93189c0.06474,0 0.12077,0.04393 0.13611,0.10593l0.88656,3.54694z" fill="#ffffff"></path><g fill="#000000" font-family="Roboto, sans-serif" font-weight="normal" font-size="14" text-anchor="start"></g><g fill="#000000" font-family="Roboto, sans-serif" font-weight="normal" font-size="14" text-anchor="start"></g><g fill="#000000" font-family="Roboto, sans-serif" font-weight="normal" font-size="14" text-anchor="start"></g><g fill="#000000" font-family="Roboto, sans-serif" font-weight="normal" font-size="14" text-anchor="start"></g><g fill="#000000" font-family="Roboto, sans-serif" font-weight="normal" font-size="14" text-anchor="start"></g><g fill="#000000" font-family="Roboto, sans-serif" font-weight="normal" font-size="14" text-anchor="start"></g><g fill="#000000" font-family="Roboto, sans-serif" font-weight="normal" font-size="14" text-anchor="start"></g><g fill="#000000" font-family="Roboto, sans-serif" font-weight="normal" font-size="14" text-anchor="start"></g><g fill="#000000" font-family="Roboto, sans-serif" font-weight="normal" font-size="14" text-anchor="start"></g><g fill="#000000" font-family="Roboto, sans-serif" font-weight="normal" font-size="14" text-anchor="start"></g><g fill="#000000" font-family="Roboto, sans-serif" font-weight="normal" font-size="14" text-anchor="start"></g><g fill="#000000" font-family="Roboto, sans-serif" font-weight="normal" font-size="14" text-anchor="start"></g><g fill="#000000" font-family="Roboto, sans-serif" font-weight="normal" font-size="14" text-anchor="start"></g><g fill="#000000" font-family="Roboto, sans-serif" font-weight="normal" font-size="14" text-anchor="start"></g><g fill="#000000" font-family="Roboto, sans-serif" font-weight="normal" font-size="14" text-anchor="start"></g></g><path d="M2,24c0,-12.15026 9.84974,-22 22,-22c12.15026,0 22,9.84974 22,22c0,12.15026 -9.84974,22 -22,22c-12.15026,0 -22,-9.84974 -22,-22z" id="base 1 1 1" fill="none" stroke-width="1"></path><g id="Layer_1 1 1" fill="#000000" stroke-width="1" font-family="Roboto, sans-serif" font-weight="normal" font-size="14" text-anchor="start"><g></g><g></g><g></g><g></g><g></g><g></g><g></g><g></g><g></g><g></g><g></g><g></g><g></g><g></g><g></g><g></g><g></g><g></g><g></g><g></g></g><rect x="2" y="2" width="44" height="22" fill="none" stroke-width="1"></rect><path d="M2,24v-22h44v22z" fill="none" stroke-width="1"></path><path d="M2,24v-22h44v22z" fill="none" stroke-width="1"></path><path d="M2,24v-22h44v22z" fill="none" stroke-width="1"></path><path d="M2,24v-22h44v22z" fill="none" stroke-width="1"></path></g></svg>