<svg version="1.1" xmlns="http://www.w3.org/2000/svg" xmlns:xlink="http://www.w3.org/1999/xlink" width="48" height="48"><defs><linearGradient x1="0.08338" y1="-0.7708" x2="101.69985" y2="102.55404" gradientUnits="userSpaceOnUse" id="color-1"><stop offset="0" stop-color="#000000" stop-opacity="0"></stop><stop offset="1" stop-color="#000000" stop-opacity="0"></stop></linearGradient><filter id="dropshadow-base"><feColorMatrix type="matrix" values="0 0 0 0 0  0 0 0 0 0  0 0 0 0 0  0 0 0 .8 0"></feColorMatrix> <feOffset dx="0" dy="1"></feOffset> <feGaussianBlur stdDeviation="1"></feGaussianBlur> <feComposite in="SourceGraphic"></feComposite></filter><filter id="dropshadow-banner" x="-10%" y="-10%" width="120%" height="130%"><feColorMatrix type="matrix" values="0 0 0 0 0  0 0 0 0 0  0 0 0 0 0  0 0 0 .4 0"></feColorMatrix> <feOffset dx="0" dy="1"></feOffset> <feGaussianBlur stdDeviation="0.5"></feGaussianBlur> <feComposite in="SourceGraphic"></feComposite></filter></defs><g fill="none" fill-rule="nonzero" stroke="none" stroke-width="none" stroke-linecap="butt" stroke-linejoin="miter" stroke-miterlimit="10" stroke-dasharray="" stroke-dashoffset="0" font-family="none" font-weight="none" font-size="none" text-anchor="none" style="mix-blend-mode: normal"><path d="M7,43c-1.10457,0 -2,-0.89543 -2,-2v-34c0,-1.10457 0.89543,-2 2,-2h34c1.10457,0 2,0.89543 2,2v34c0,1.10457 -0.89543,2 -2,2z" id="base 1 5" fill="#0075ff" stroke-width="1"></path><path d="M10.33327,29.9791v-5.12493c0,-1.413 1.14951,-2.56251 2.56251,-2.56251h6.34425l-6.21065,-6.21065c-0.07693,-0.07693 -0.12528,-0.18397 -0.12528,-0.30437l0,-10.77664h28.0959c0.0858,0 0.17034,0.0054 0.2533,0.01589l1.73081,1.73081c0.01048,0.08296 0.01589,0.1675 0.01589,0.2533v34c0,1.10457 -0.89543,2 -2,2h-34c-1.10457,0 -2,-0.89543 -2,-2l0,-11.0209z" fill="url(#color-1)" stroke-width="1"></path><path transform="translate(-35.44993,-35.44993) scale(2.47708,2.47708)" d="M30.20684,24.34482v2.06894h1.72414c0.19047,0 0.34484,0.15441 0.3448,0.34484v1.7241h0.00008v0.68965h1.03445c0.19043,0 0.34484,0.15441 0.34484,0.34484v4.13792c0,0.19043 -0.15441,0.34484 -0.34484,0.34484h-1.71676c-0.00247,0.00003 -0.00494,0.00004 -0.00742,0.00004h-3.79308c-0.19043,0 -0.34484,-0.15441 -0.34484,-0.34484v-6.89655c0,-0.19043 0.15441,-0.34484 0.34484,-0.34484l1.72414,0l0,-2.06894c0,-0.19012 -0.15457,-0.34484 -0.34484,-0.34484h-9.65514c-0.19027,0 -0.34484,0.15477 -0.34484,0.34484l0,1.37929h0.00004v0.68965h3.44827c0.3809,0 0.68965,0.30875 0.68965,0.68965v4.82761c0,0.3809 -0.30875,0.68965 -0.68965,0.68965h-2.75863v0.68961h0.34484c0.19059,0 0.34484,0.15441 0.34484,0.34484c-0.00004,0.19043 -0.15426,0.34484 -0.34484,0.34484h-2.75863c-0.19059,0 -0.34484,-0.15441 -0.34484,-0.34484c0,-0.19043 0.15422,-0.34484 0.34484,-0.34484l0.3448,0v-0.68961h-2.75859c-0.3809,0 -0.68965,-0.30875 -0.68965,-0.68965v-4.82761c0,-0.3809 0.30875,-0.68965 0.68965,-0.68965l3.44824,0v-2.06894c0,-0.57043 0.46406,-1.03449 1.03449,-1.03449h4.47984l0.00293,-2.41414v-0.00055c0,-0.15805 -0.10656,-0.24246 -0.25922,-0.28336c-0.26469,-0.07094 -0.63187,-0.12719 -1.1316,-0.12719c-1.11097,0 -2.38937,0.25559 -2.88109,0.36387c-0.10746,0.02367 -0.2075,-0.05871 -0.2075,-0.16875v-5.99331c0,-0.16207 0.1118,-0.30246 0.27023,-0.33668c0.53101,-0.11469 1.75183,-0.35023 2.81835,-0.35023c0.98875,0 1.4607,0.22031 1.64273,0.33848c0.05871,0.03809 0.13043,0.03809 0.1891,0c0.18207,-0.11816 0.65406,-0.33848 1.64281,-0.33848c1.06652,0 2.28734,0.23555 2.81839,0.35023c0.15848,0.03418 0.27023,0.17457 0.27023,0.33668v5.99327c0,0.11004 -0.10004,0.19242 -0.2075,0.16875c-0.49176,-0.10828 -1.77015,-0.36387 -2.88109,-0.36387c-0.50219,0 -0.87043,0.05684 -1.13535,0.12824c-0.15246,0.04109 -0.25883,0.12535 -0.25883,0.28324v0.97113c-0.00041,0.00014 -0.00081,0.00029 -0.00122,0.00043l-0.00175,1.44222h4.48569c0.57043,0 1.03449,0.46406 1.03445,1.03449z" fill="none" stroke-width="0"></path><g id="Layer_1 2" stroke-width="1"><path d="M36.81243,22.29164h-11.11143l0.00726,-5.97827l-1.70831,-0.00174l-0.00726,5.98001h-11.09691c-1.413,0 -2.56252,1.14952 -2.56252,2.56252v5.97914h1.70831v-5.97914c0,-0.47084 0.38288,-0.8542 0.8542,-0.8542h11.94908h0.00087h11.9666c0.47132,0 0.8542,0.38327 0.8542,0.8542v5.97914h1.70831v-5.97914c0.0001,-1.413 -1.14942,-2.56252 -2.56242,-2.56252z" fill="#c7cfe2"></path><g fill="#afb9d2"><path d="M25.70826,16.3125h-1.70831v2.40557c0.26841,0.09541 0.55308,0.15695 0.8542,0.15695c0.30112,0 0.58579,-0.06154 0.8542,-0.15695v-2.40557z"></path><path d="M10.33337,30.83329v-2.56252h1.70831v2.56252z"></path><path d="M37.66654,30.83329v-2.56252h1.70831v2.56252z"></path></g><path d="M43.64568,29.97909h-10.24996c-0.47171,0 -0.8542,0.3825 -0.8542,0.8542v17.08331c0,0.47171 0.3825,0.8542 0.8542,0.8542h9.39576c0.94351,0 1.70831,-0.7648 1.70831,-1.70831v-16.2292c0.0001,-0.47171 -0.3823,-0.8542 -0.85411,-0.8542z" fill="#e4eaf8"></path><path d="M42.79157,48.77071h-3.41662v-11.10417c0,-1.41522 1.14729,-2.56252 2.56252,-2.56252h2.56252v11.95828c-0.0001,0.94361 -0.76489,1.70841 -1.70841,1.70841z" fill="#d5dced"></path><path d="M43.21867,46.20819h-9.39576c-0.2359,0 -0.4271,-0.1912 -0.4271,-0.4271v-12.81238c0,-0.2359 0.1912,-0.4271 0.4271,-0.4271h9.39576c0.2359,0 0.4271,0.1912 0.4271,0.4271v12.81248c-0.0001,0.23581 -0.1913,0.42701 -0.4271,0.42701z" fill="#00c3ff"></path><path d="M41.93736,35.10412c-1.41522,0 -2.56252,1.14729 -2.56252,2.56252v8.54165h3.84372c0.2359,0 0.4271,-0.1912 0.4271,-0.4271v-10.67707z" fill="#00aaf0"></path><path d="M41.93736,48.77071h5.12503c0.47171,0 0.8542,-0.3825 0.8542,-0.8542v-10.24996c0,-0.47171 -0.3825,-0.8542 -0.8542,-0.8542h-5.12503c-0.47171,0 -0.8542,0.3825 -0.8542,0.8542v10.24996c0.0001,0.47171 0.3825,0.8542 0.8542,0.8542z" fill="#5b5d6e"></path><path d="M29.16175,-0.7708c-2.44921,0 -3.61837,0.54573 -4.06937,0.83843c-0.14533,0.09434 -0.32299,0.09434 -0.46842,0c-0.45091,-0.2927 -1.61997,-0.83843 -4.06918,-0.83843c-2.64186,0 -5.66592,0.58347 -6.98129,0.86756c-0.39246,0.08476 -0.66939,0.43252 -0.66939,0.83398v14.84591c0,0.27258 0.2478,0.47664 0.51399,0.41801c1.21802,-0.26822 4.38471,-0.90133 7.13669,-0.90133c1.23786,0 2.14741,0.13934 2.80306,0.31505c0.37814,0.10131 0.6421,0.31041 0.6421,0.7019v0.00223c0,0.4721 0.38201,0.8542 0.8542,0.8542c0.4721,0 0.8542,-0.38201 0.8542,-0.8542v0c0,-0.39111 0.26348,-0.59982 0.64114,-0.70161c0.65623,-0.17688 1.5684,-0.31767 2.81235,-0.31767c2.75188,0 5.91857,0.63311 7.13669,0.90133c0.26619,0.05864 0.51399,-0.14543 0.51399,-0.41801v-14.84581c0,-0.40156 -0.27683,-0.74932 -0.66939,-0.83398c-1.31546,-0.28409 -4.33953,-0.86756 -6.98139,-0.86756z" fill="#e4eaf8"></path><path d="M33.39658,4.71785c-0.04248,0 -0.08505,-0.00329 -0.1284,-0.00919c-2.77936,-0.41965 -4.97815,-0.47626 -6.50881,-0.11427c-0.45797,0.11089 -0.92,-0.17523 -1.0277,-0.63398c-0.10924,-0.45884 0.17523,-0.91923 0.63398,-1.0277c1.7593,-0.41617 4.14155,-0.36866 7.15778,0.08592c0.46629,0.07093 0.78744,0.50635 0.71738,0.97254c-0.06425,0.42313 -0.42884,0.72667 -0.84424,0.72667z" fill="#707487"></path><path d="M33.39658,11.5512c-0.04248,0 -0.08505,-0.00329 -0.1284,-0.00919c-2.77936,-0.41965 -4.97815,-0.47626 -6.50881,-0.11427c-0.45797,0.10847 -0.92,-0.17523 -1.0277,-0.63398c-0.10924,-0.45884 0.17523,-0.91923 0.63398,-1.0277c1.7593,-0.41704 4.14155,-0.36866 7.15778,0.08592c0.46629,0.07093 0.78744,0.50635 0.71738,0.97254c-0.06425,0.42304 -0.42884,0.72667 -0.84424,0.72667z" fill="#7f8499"></path><path d="M26.5616,8.03443c-0.38704,0 -0.73732,-0.26445 -0.83079,-0.65817c-0.1076,-0.45884 0.17591,-0.91923 0.63562,-1.0277c0.27528,-0.06425 0.5855,-0.12347 0.9351,-0.17107c0.47132,-0.06009 0.89833,0.26522 0.9618,0.73161c0.06338,0.46794 -0.26445,0.89833 -0.73161,0.9618c-0.28941,0.03919 -0.54631,0.08679 -0.77322,0.14098c-0.06589,0.015 -0.13179,0.02255 -0.19691,0.02255z" fill="#707487"></path><g fill="#7f8499"><path d="M33.39658,8.13448c-0.04248,0 -0.08505,-0.00329 -0.1284,-0.00919c-0.89088,-0.13517 -1.73086,-0.23194 -2.49817,-0.28941c-0.47045,-0.03503 -0.82334,-0.44462 -0.78831,-0.91507c0.03503,-0.47045 0.44878,-0.82421 0.91507,-0.78831c0.80998,0.06009 1.69331,0.16265 2.62676,0.30276c0.46629,0.07093 0.78744,0.50635 0.71738,0.97254c-0.06435,0.42313 -0.42894,0.72667 -0.84433,0.72667z"></path><path d="M16.31163,4.71785c-0.41549,0 -0.77999,-0.30364 -0.84414,-0.72658c-0.07005,-0.46629 0.25109,-0.90171 0.71738,-0.97254c3.01623,-0.45381 5.39935,-0.50219 7.15778,-0.08592c0.45884,0.10847 0.74322,0.56886 0.63398,1.0277c-0.10847,0.45884 -0.5706,0.74496 -1.0277,0.63398c-1.53066,-0.36208 -3.72868,-0.30528 -6.50881,0.11427c-0.04345,0.00581 -0.08592,0.0091 -0.1285,0.0091z"></path></g><g fill="#707487"><path d="M16.31163,11.5512c-0.41549,0 -0.77999,-0.30364 -0.84414,-0.72658c-0.07005,-0.46629 0.25109,-0.90171 0.71738,-0.97254c3.01623,-0.45381 5.39935,-0.50219 7.15778,-0.08592c0.45884,0.10847 0.74322,0.56886 0.63398,1.0277c-0.10847,0.45884 -0.5706,0.74235 -1.0277,0.63398c-1.53066,-0.36208 -3.72868,-0.30528 -6.50881,0.11427c-0.04345,0.00571 -0.08592,0.0091 -0.1285,0.0091z"></path><path d="M23.14662,8.03443c-0.06502,0 -0.13101,-0.00745 -0.19691,-0.02255c-0.2269,-0.05428 -0.4838,-0.10179 -0.77322,-0.14098c-0.46716,-0.06338 -0.79489,-0.49377 -0.73161,-0.9618c0.06425,-0.46629 0.49213,-0.7916 0.9618,-0.73161c0.3495,0.04751 0.65981,0.10673 0.9351,0.17107c0.45961,0.10847 0.74322,0.56886 0.63562,1.0277c-0.09337,0.39285 -0.44374,0.65817 -0.83079,0.65817z"></path></g><path d="M16.31163,8.13448c-0.41549,0 -0.77999,-0.30364 -0.84414,-0.72658c-0.07005,-0.46629 0.25109,-0.90171 0.71738,-0.97254c0.93335,-0.14021 1.81678,-0.24268 2.62676,-0.30276c0.48293,-0.04422 0.88004,0.31786 0.91507,0.78831c0.03503,0.47045 -0.31786,0.88004 -0.78831,0.91507c-0.76751,0.05757 -1.60739,0.15424 -2.49817,0.28941c-0.04354,0.00581 -0.08602,0.0091 -0.1286,0.0091z" fill="#7f8499"></path><path d="M8.62496,47.9165v-3.41662h5.12503v3.41662z" fill="#c7cfe2"></path><path d="M20.58333,45.35408h-18.79162c-0.94351,0 -1.70831,-0.7648 -1.70831,-1.70831v-11.95837c0,-0.94351 0.7648,-1.70831 1.70831,-1.70831h18.79162c0.94351,0 1.70831,0.7648 1.70831,1.70831v11.95828c0,0.94361 -0.7648,1.70841 -1.70831,1.70841z" fill="#5b5d6e"></path><g fill="#e4eaf8"><path d="M14.60419,48.77071h-6.83334c-0.4721,0 -0.8542,-0.3825 -0.8542,-0.8542c0,-0.47171 0.38201,-0.8542 0.8542,-0.8542h6.83334c0.4721,0 0.8542,0.3825 0.8542,0.8542c-0.0001,0.47171 -0.38211,0.8542 -0.8542,0.8542z"></path><path d="M20.58333,45.35408h-18.79162c-0.94351,0 -1.70831,-0.7648 -1.70831,-1.70831v-0.8542h22.20824v0.8542c0,0.94351 -0.7648,1.70831 -1.70831,1.70831z"></path></g><path d="M20.15623,41.08326h-17.93741c-0.2359,0 -0.4271,-0.1912 -0.4271,-0.4271v-8.54165c0,-0.2359 0.1912,-0.4271 0.4271,-0.4271h17.93741c0.2359,0 0.4271,0.1912 0.4271,0.4271v8.54165c0,0.23581 -0.1913,0.4271 -0.4271,0.4271z" fill="#ffdc64"></path><path d="M46.63529,47.06239h-4.27083c-0.2359,0 -0.4271,-0.1912 -0.4271,-0.4271v-7.68745c0,-0.2359 0.1912,-0.4271 0.4271,-0.4271h4.27083c0.2359,0 0.4271,0.1912 0.4271,0.4271v7.68745c0,0.2359 -0.1912,0.4271 -0.4271,0.4271z" fill="#a0ffb4"></path><g fill="#000000" font-family="Roboto, sans-serif" font-weight="normal" font-size="14" text-anchor="start"></g><g fill="#000000" font-family="Roboto, sans-serif" font-weight="normal" font-size="14" text-anchor="start"></g><g fill="#000000" font-family="Roboto, sans-serif" font-weight="normal" font-size="14" text-anchor="start"></g><g fill="#000000" font-family="Roboto, sans-serif" font-weight="normal" font-size="14" text-anchor="start"></g><g fill="#000000" font-family="Roboto, sans-serif" font-weight="normal" font-size="14" text-anchor="start"></g><g fill="#000000" font-family="Roboto, sans-serif" font-weight="normal" font-size="14" text-anchor="start"></g><g fill="#000000" font-family="Roboto, sans-serif" font-weight="normal" font-size="14" text-anchor="start"></g><g fill="#000000" font-family="Roboto, sans-serif" font-weight="normal" font-size="14" text-anchor="start"></g><g fill="#000000" font-family="Roboto, sans-serif" font-weight="normal" font-size="14" text-anchor="start"></g><g fill="#000000" font-family="Roboto, sans-serif" font-weight="normal" font-size="14" text-anchor="start"></g><g fill="#000000" font-family="Roboto, sans-serif" font-weight="normal" font-size="14" text-anchor="start"></g><g fill="#000000" font-family="Roboto, sans-serif" font-weight="normal" font-size="14" text-anchor="start"></g><g fill="#000000" font-family="Roboto, sans-serif" font-weight="normal" font-size="14" text-anchor="start"></g><g fill="#000000" font-family="Roboto, sans-serif" font-weight="normal" font-size="14" text-anchor="start"></g><g fill="#000000" font-family="Roboto, sans-serif" font-weight="normal" font-size="14" text-anchor="start"></g></g><path d="M2,24c0,-12.15026 9.84974,-22 22,-22c12.15026,0 22,9.84974 22,22c0,12.15026 -9.84974,22 -22,22c-12.15026,0 -22,-9.84974 -22,-22z" id="base 1 1 1" fill="none" stroke-width="1"></path><g id="Layer_1 1 1" fill="#000000" stroke-width="1" font-family="Roboto, sans-serif" font-weight="normal" font-size="14" text-anchor="start"><g></g><g></g><g></g><g></g><g></g><g></g><g></g><g></g><g></g><g></g><g></g><g></g><g></g><g></g><g></g><g></g><g></g><g></g><g></g></g><rect x="2" y="2" width="44" height="22" fill="none" stroke-width="1"></rect><path d="M2,24v-22h44v22z" fill="none" stroke-width="1"></path><path d="M2,24v-22h44v22z" fill="none" stroke-width="1"></path><path d="M2,24v-22h44v22z" fill="none" stroke-width="1"></path><path d="M2,24v-22h44v22z" fill="none" stroke-width="1"></path></g></svg>