<svg version="1.1" xmlns="http://www.w3.org/2000/svg" xmlns:xlink="http://www.w3.org/1999/xlink" width="48" height="48"><defs><linearGradient x1="11.80997" y1="11.68966" x2="78.61644" y2="78.73675" gradientUnits="userSpaceOnUse" id="color-1"><stop offset="0" stop-color="#000000" stop-opacity="0.7"></stop><stop offset="1" stop-color="#000000" stop-opacity="0"></stop></linearGradient><filter id="dropshadow-base"><feColorMatrix type="matrix" values="0 0 0 0 0  0 0 0 0 0  0 0 0 0 0  0 0 0 .8 0"></feColorMatrix> <feOffset dx="0" dy="1"></feOffset> <feGaussianBlur stdDeviation="1"></feGaussianBlur> <feComposite in="SourceGraphic"></feComposite></filter><filter id="dropshadow-banner" x="-10%" y="-10%" width="120%" height="130%"><feColorMatrix type="matrix" values="0 0 0 0 0  0 0 0 0 0  0 0 0 0 0  0 0 0 .4 0"></feColorMatrix> <feOffset dx="0" dy="1"></feOffset> <feGaussianBlur stdDeviation="0.5"></feGaussianBlur> <feComposite in="SourceGraphic"></feComposite></filter></defs><g fill="none" fill-rule="nonzero" stroke="none" stroke-width="none" stroke-linecap="butt" stroke-linejoin="miter" stroke-miterlimit="10" stroke-dasharray="" stroke-dashoffset="0" font-family="none" font-weight="none" font-size="none" text-anchor="none" style="mix-blend-mode: normal"><path d="M3,24c0,-11.59798 9.40202,-21 21,-21c11.59798,0 21,9.40202 21,21c0,11.59798 -9.40202,21 -21,21c-11.59798,0 -21,-9.40202 -21,-21z" id="base 1 1" fill="#512da8" stroke-width="1" filter="url(#dropshadow-base)"></path><path d="M44.84774,21.45821l-9.61185,-9.61185c0.00064,0.00064 0.00128,0.00128 0.00192,0.00193l-0.00192,-0.00192c-0.20894,-0.20894 -0.54776,-0.20894 -0.75675,0l-1.92512,1.92512c-0.20894,0.20894 -0.20894,0.54776 0,0.75675l0.94731,0.94731l-0.56887,0c-0.12481,0 -0.23963,0.04273 -0.33064,0.11436l-1.74419,-1.74419c-0.33994,-0.33994 -0.80955,-0.54972 -1.32703,-0.54972l1.87611,1.87611c0,0 0,0.00001 0,0.00001l-1.87612,-1.87612c-1.03806,0 -1.87612,0.842 -1.87612,1.87612c0,0.51679 0.20986,0.98673 0.55014,1.32701l1.36726,1.36726c-0.0136,0 -0.0272,0 -0.04077,0l-2.73218,-2.73218c-0.01954,-0.01954 -0.04014,-0.03837 -0.0618,-0.05639c-0.38403,-0.31973 -0.95482,-0.26784 -1.27484,0.11666l-0.22769,0.27357l-0.56993,-0.56993l-12.2661,0c-0.32507,0 -0.58858,0.26351 -0.58859,0.58858l0,12.30101l16.72201,16.72201c9.41952,-2.072 16.46802,-10.46773 16.46802,-20.50972c0,-0.86033 -0.05174,-1.70857 -0.15226,-2.54179z M11.80997,27.78772c0,0.16253 0.06588,0.30968 0.17239,0.41619l16.34893,16.34893c0.06701,-0.01405 0.13391,-0.02842 0.20069,-0.04311z" fill="url(#color-1)" stroke-width="1"></path><path d="M34.12854,26.64834c0.0025,0.49996 -0.40076,0.90726 -0.90067,0.90976c-0.00149,0 -0.00313,0 -0.00466,0c-0.49881,0 -0.90259,-0.40321 -0.9051,-0.90072l-0.03342,-6.65035c-0.00091,-0.10435 -0.08598,-0.18831 -0.19028,-0.18783c-0.1043,0.00048 -0.1886,0.08516 -0.1886,0.18946c0.00043,9.07418 0.01972,0.851 0.01972,15.21538c0,0.59993 -0.48635,1.08629 -1.08629,1.08629c-0.59993,0 -1.08629,-0.48635 -1.08629,-1.08629l0,-8.68261l-0.46904,0l0,8.68261c0,0.59993 -0.48635,1.08629 -1.08629,1.08629c-0.59993,0 -1.08629,-0.48635 -1.08629,-1.08629c0,-0.09036 -0.00043,-15.61171 -0.00043,-15.61171l-3.1939,-0.37344c-0.33118,-0.03876 -0.61268,-0.25597 -0.73549,-0.56324c-0.12325,-0.30848 -0.06766,-0.65971 0.14489,-0.915l2.13588,-2.56617c0.32002,-0.3845 0.89081,-0.43639 1.27484,-0.11666c0.38417,0.31973 0.43663,0.89043 0.11666,1.27484l-1.067,1.28195l1.98225,0.23178c0.77271,0 3.39961,0 4.18382,0c1.17534,0 2.13622,0.95602 2.14223,2.13151z M26.30866,28.3763l-13.91011,0c-0.32507,0 -0.58859,-0.26352 -0.58859,-0.58859l0,-12.30101c0,-0.32507 0.26352,-0.58859 0.58859,-0.58859l12.2661,0l-0.97982,1.17717l-10.69769,0l0,11.12384l13.32113,0z M31.40671,15.17212c0,1.03613 -0.83999,1.87612 -1.87612,1.87612c-1.04027,0 -1.87612,-0.84475 -1.87612,-1.87612c0,-1.03411 0.83806,-1.87612 1.87612,-1.87612c1.03354,0 1.87607,0.83676 1.87612,1.87612z M35.23589,12.60311l-1.92512,1.92512c-0.20894,0.20894 -0.54781,0.20889 -0.75675,0c-0.20894,-0.20899 -0.20894,-0.54781 0,-0.75675l1.92512,-1.92512c0.20899,-0.20894 0.54781,-0.20894 0.75675,0c0.20894,0.20899 0.20894,0.54781 0,0.75675z M22.33224,20.28507c0,0.01923 -0.00481,0.04814 -0.01443,0.07223l-0.70303,1.7962c-0.22635,0.57786 -0.36118,1.20872 -1.22314,1.20872c-0.15893,0 -0.28415,-0.03371 -0.28415,-0.26486c0,-0.13964 0.04333,-0.26005 0.15893,-0.26005c0.21192,0 0.65495,-0.13003 0.68861,-0.70784l-0.82825,-1.77215c-0.00967,-0.02404 -0.01928,-0.05294 -0.01928,-0.08184c0,-0.16374 0.25525,-0.29857 0.41417,-0.29857c0.08184,0 0.15407,0.0289 0.17816,0.10594l0.57791,1.43987l0.46707,-1.43987c0.02409,-0.07704 0.09632,-0.10594 0.16374,-0.10594c0.14921,0 0.42374,0.13484 0.4237,0.30819z M17.84432,22.03314c0,0.13484 -0.24077,0.30819 -0.40451,0.30819c-0.04814,0 -0.11074,-0.01928 -0.14445,-0.06742l-0.4864,-0.73193l-0.48159,0.73193c-0.03371,0.04814 -0.10598,0.06742 -0.15412,0.06742c-0.12998,0 -0.39484,-0.16374 -0.39484,-0.30819c0,-0.03852 0.01443,-0.07704 0.03857,-0.10589l0.56825,-0.79459l-0.52968,-0.73674c-0.01443,-0.01923 -0.03852,-0.06261 -0.03852,-0.10113c0,-0.1445 0.25044,-0.31305 0.41417,-0.31305c0.0289,0 0.10113,0.00481 0.13964,0.06742l0.43817,0.70308l0.44303,-0.69827c0.03371,-0.05294 0.10113,-0.07223 0.14445,-0.07223c0.14921,0 0.40927,0.16859 0.40927,0.31305c0,0.03371 -0.01443,0.06261 -0.03852,0.10113l-0.53454,0.74155l0.57301,0.78973c0.01923,0.01928 0.03852,0.06261 0.03861,0.10594z M36.19003,16.01061c0,0.2955 -0.23952,0.53507 -0.53507,0.53507l-2.7225,0c-0.2955,0 -0.53507,-0.23957 -0.53507,-0.53507c0,-0.2955 0.23952,-0.53507 0.53507,-0.53507l2.7225,0c0.2955,0 0.53507,0.23957 0.53507,0.53507z M19.97751,21.14227c0,0.15412 -0.10113,0.25525 -0.20225,0.25525l-0.51049,0l0,0.51521c0,0.1156 -0.10113,0.19264 -0.25525,0.19264c-0.14445,0 -0.26005,-0.07704 -0.26005,-0.19264l0,-0.51521l-0.51525,0c-0.1156,0 -0.19264,-0.10113 -0.19264,-0.25525c0,-0.14445 0.07704,-0.26005 0.19264,-0.26005l0.51525,0l0,-0.51044c0,-0.10113 0.1156,-0.19745 0.26005,-0.19745c0.15412,0 0.25525,0.09632 0.25525,0.19745l0,0.51049l0.51049,0c0.10113,0 0.20225,0.11555 0.20225,0.26001z M24.26342,20.62702c0,0.15412 -0.10113,0.25525 -0.20225,0.25525l-1.24243,0c-0.1156,0 -0.19264,-0.10113 -0.19264,-0.25525c0,-0.14445 0.07704,-0.26005 0.19264,-0.26005l1.24243,0c0.10113,0 0.20225,0.11555 0.20225,0.26005z M24.26342,21.60458c0,0.15412 -0.10113,0.25525 -0.20225,0.25525l-1.24243,0c-0.1156,0 -0.19264,-0.10113 -0.19264,-0.25525c0,-0.14445 0.07704,-0.26005 0.19264,-0.26005l1.24243,0c0.10113,0 0.20225,0.11555 0.20225,0.26005z" fill="#ffffff" stroke-width="0"></path></g></svg>