<svg version="1.1" xmlns="http://www.w3.org/2000/svg" xmlns:xlink="http://www.w3.org/1999/xlink" width="48" height="48"><defs><linearGradient x1="10.00769" y1="8.11433" x2="57.42129" y2="56.55206" gradientUnits="userSpaceOnUse" id="color-1"><stop offset="0" stop-color="#000000" stop-opacity="0.39"></stop><stop offset="1" stop-color="#000000" stop-opacity="0"></stop></linearGradient><filter id="dropshadow-base"><feColorMatrix type="matrix" values="0 0 0 0 0  0 0 0 0 0  0 0 0 0 0  0 0 0 .8 0"></feColorMatrix> <feOffset dx="0" dy="1"></feOffset> <feGaussianBlur stdDeviation="1"></feGaussianBlur> <feComposite in="SourceGraphic"></feComposite></filter><filter id="dropshadow-banner" x="-10%" y="-10%" width="120%" height="130%"><feColorMatrix type="matrix" values="0 0 0 0 0  0 0 0 0 0  0 0 0 0 0  0 0 0 .4 0"></feColorMatrix> <feOffset dx="0" dy="1"></feOffset> <feGaussianBlur stdDeviation="0.5"></feGaussianBlur> <feComposite in="SourceGraphic"></feComposite></filter></defs><g fill="none" fill-rule="nonzero" stroke="none" stroke-width="none" stroke-linecap="butt" stroke-linejoin="miter" stroke-miterlimit="10" stroke-dasharray="" stroke-dashoffset="0" font-family="none" font-weight="none" font-size="none" text-anchor="none" style="mix-blend-mode: normal"><path d="M7,43c-1.10457,0 -2,-0.89543 -2,-2v-34c0,-1.10457 0.89543,-2 2,-2h34c1.10457,0 2,0.89543 2,2v34c0,1.10457 -0.89543,2 -2,2z" id="base 1 9" fill="#0038ff" stroke-width="1"></path><path d="M10.30764,35.46554c-0.18532,-0.18532 -0.29995,-0.44135 -0.29995,-0.72416v-7.16886c0,-0.56563 0.45848,-1.02411 1.02411,-1.02411h5.12053v-3.07231c0,-0.84707 0.68912,-1.53619 1.53619,-1.53619h3.80328l-3.72318,-3.72318c-0.04612,-0.04612 -0.07511,-0.11028 -0.07511,-0.18247v-8.89989c0,-0.24067 0.16602,-0.44914 0.40128,-0.49996c0.78853,-0.17031 2.60142,-0.52008 4.18517,-0.52008c1.46826,0 2.1691,0.32715 2.4394,0.50263c0.08718,0.05656 0.19368,0.05656 0.28081,0c0.27037,-0.17546 0.97126,-0.50263 2.43952,-0.50263c1.58375,0 3.39663,0.34978 4.18522,0.52008c0.09824,0.02119 0.1844,0.06986 0.25143,0.1369l11.12365,11.12365v21.10505c0,1.10457 -0.89543,2 -2,2h-23.1579zM31.87635,8.77131c0,0 0,0 0,0c0,0 0,0 0,0z" fill="url(#color-1)" stroke-width="1"></path><path transform="translate(-11.29396,-12.67525) scale(1.48497,1.48497)" d="M30.20684,24.34482v2.06894h1.72414c0.19047,0 0.34484,0.15441 0.3448,0.34484v1.7241h0.00008v0.68965h1.03445c0.19043,0 0.34484,0.15441 0.34484,0.34484v4.13792c0,0.19043 -0.15441,0.34484 -0.34484,0.34484h-1.71676c-0.00247,0.00003 -0.00494,0.00004 -0.00742,0.00004h-3.79308c-0.19043,0 -0.34484,-0.15441 -0.34484,-0.34484v-6.89655c0,-0.19043 0.15441,-0.34484 0.34484,-0.34484l1.72414,0l0,-2.06894c0,-0.19012 -0.15457,-0.34484 -0.34484,-0.34484h-9.65514c-0.19027,0 -0.34484,0.15477 -0.34484,0.34484l0,1.37929h0.00004v0.68965h3.44827c0.3809,0 0.68965,0.30875 0.68965,0.68965v4.82761c0,0.3809 -0.30875,0.68965 -0.68965,0.68965h-2.75863v0.68961h0.34484c0.19059,0 0.34484,0.15441 0.34484,0.34484c-0.00004,0.19043 -0.15426,0.34484 -0.34484,0.34484h-2.75863c-0.19059,0 -0.34484,-0.15441 -0.34484,-0.34484c0,-0.19043 0.15422,-0.34484 0.34484,-0.34484l0.3448,0v-0.68961h-2.75859c-0.3809,0 -0.68965,-0.30875 -0.68965,-0.68965v-4.82761c0,-0.3809 0.30875,-0.68965 0.68965,-0.68965l3.44824,0v-2.06894c0,-0.57043 0.46406,-1.03449 1.03449,-1.03449h4.47984l0.00293,-2.41414v-0.00055c0,-0.15805 -0.10656,-0.24246 -0.25922,-0.28336c-0.26469,-0.07094 -0.63187,-0.12719 -1.1316,-0.12719c-1.11097,0 -2.38937,0.25559 -2.88109,0.36387c-0.10746,0.02367 -0.2075,-0.05871 -0.2075,-0.16875v-5.99331c0,-0.16207 0.1118,-0.30246 0.27023,-0.33668c0.53101,-0.11469 1.75183,-0.35023 2.81835,-0.35023c0.98875,0 1.4607,0.22031 1.64273,0.33848c0.05871,0.03809 0.13043,0.03809 0.1891,0c0.18207,-0.11816 0.65406,-0.33848 1.64281,-0.33848c1.06652,0 2.28734,0.23555 2.81839,0.35023c0.15848,0.03418 0.27023,0.17457 0.27023,0.33668v5.99327c0,0.11004 -0.10004,0.19242 -0.2075,0.16875c-0.49176,-0.10828 -1.77015,-0.36387 -2.88109,-0.36387c-0.50219,0 -0.87043,0.05684 -1.13535,0.12824c-0.15246,0.04109 -0.25883,0.12535 -0.25883,0.28324v0.97113c-0.00041,0.00014 -0.00081,0.00029 -0.00122,0.00043l-0.00175,1.44222h4.48569c0.57043,0 1.03449,0.46406 1.03445,1.03449z" fill="none" stroke-width="0"></path><g id="Layer_1 3" stroke-width="1"><path d="M32.02617,21.93989h-6.66112l0.00435,-3.58388l-1.02411,-0.00104l-0.00435,3.58492h-6.65242c-0.84707,0 -1.53619,0.68912 -1.53619,1.53619v3.5844h1.02411v-3.5844c0,-0.28226 0.22953,-0.51208 0.51208,-0.51208h7.16328h0.00052h7.17378c0.28255,0 0.51208,0.22976 0.51208,0.51208v3.5844h1.02411v-3.5844c0.00006,-0.84707 -0.68906,-1.53619 -1.53613,-1.53619z" fill="#c7cfe2"></path><g fill="#afb9d2"><path d="M25.3694,18.3555h-1.02411v1.4421c0.16091,0.05719 0.33157,0.09409 0.51208,0.09409c0.18052,0 0.35117,-0.03689 0.51208,-0.09409v-1.4421z"></path><path d="M16.15239,27.06048v-1.53619h1.02411v1.53619z"></path><path d="M32.5382,27.06048v-1.53619h1.02411v1.53619z"></path></g><path d="M36.12259,26.5484h-6.14469c-0.28278,0 -0.51208,0.2293 -0.51208,0.51208v10.24117c0,0.28278 0.2293,0.51208 0.51208,0.51208h5.63261c0.56562,0 1.02411,-0.45848 1.02411,-1.02411v-9.72915c0.00006,-0.28278 -0.22918,-0.51208 -0.51202,-0.51208z" fill="#e4eaf8"></path><path d="M35.61057,37.81367h-2.04821v-6.65677c0,-0.8484 0.68778,-1.53619 1.53619,-1.53619h1.53619v7.1688c-0.00006,0.56568 -0.45854,1.02416 -1.02416,1.02416z" fill="#d5dced"></path><path d="M35.86661,36.27749h-5.63261c-0.14142,0 -0.25604,-0.11462 -0.25604,-0.25604v-7.68082c0,-0.14142 0.11462,-0.25604 0.25604,-0.25604h5.63261c0.14142,0 0.25604,0.11462 0.25604,0.25604v7.68088c-0.00006,0.14136 -0.11468,0.25598 -0.25604,0.25598z" fill="#00c3ff"></path><path d="M35.09849,29.62077c-0.8484,0 -1.53619,0.68778 -1.53619,1.53619v5.12058h2.30425c0.14142,0 0.25604,-0.11462 0.25604,-0.25604v-6.40073z" fill="#00aaf0"></path><path d="M35.09849,37.81367h3.07237c0.28278,0 0.51208,-0.2293 0.51208,-0.51208v-6.14469c0,-0.28278 -0.2293,-0.51208 -0.51208,-0.51208h-3.07237c-0.28278,0 -0.51208,0.2293 -0.51208,0.51208v6.14469c0.00006,0.28278 0.2293,0.51208 0.51208,0.51208z" fill="#5b5d6e"></path><path d="M27.43971,8.11433c-1.46826,0 -2.16915,0.32716 -2.43952,0.50263c-0.08713,0.05656 -0.19363,0.05656 -0.28081,0c-0.27031,-0.17547 -0.97115,-0.50263 -2.43941,-0.50263c-1.58375,0 -3.39663,0.34978 -4.18517,0.52009c-0.23527,0.05081 -0.40129,0.25929 -0.40129,0.49996v8.89988c0,0.1634 0.14855,0.28574 0.30813,0.25059c0.73019,-0.16079 2.62857,-0.54033 4.27833,-0.54033c0.74208,0 1.28734,0.08353 1.68039,0.18887c0.22669,0.06073 0.38493,0.18608 0.38493,0.42078v0.00133c0,0.28301 0.22901,0.51208 0.51208,0.51208c0.28301,0 0.51208,-0.22901 0.51208,-0.51208v0c0,-0.23446 0.15795,-0.35958 0.38435,-0.42061c0.3934,-0.10604 0.94023,-0.19044 1.68596,-0.19044c1.64971,0 3.54809,0.37954 4.27833,0.54033c0.15958,0.03515 0.30813,-0.08718 0.30813,-0.25059v-8.89983c0,-0.24073 -0.16596,-0.4492 -0.40129,-0.49996c-0.7886,-0.17031 -2.60148,-0.52009 -4.18523,-0.52009z" fill="#e4eaf8"></path><path d="M29.97843,11.40469c-0.02546,0 -0.05099,-0.00197 -0.07697,-0.00551c-1.66618,-0.25157 -2.98432,-0.28551 -3.90193,-0.06851c-0.27454,0.06648 -0.55153,-0.10505 -0.61609,-0.38006c-0.06549,-0.27507 0.10505,-0.55106 0.38006,-0.61609c1.05467,-0.24949 2.4828,-0.221 4.29098,0.05151c0.27953,0.04252 0.47206,0.30355 0.43006,0.58302c-0.03852,0.25366 -0.25708,0.43563 -0.50611,0.43563z" fill="#707487"></path><path d="M29.97843,15.50117c-0.02546,0 -0.05099,-0.00197 -0.07697,-0.00551c-1.66618,-0.25157 -2.98432,-0.28551 -3.90193,-0.06851c-0.27454,0.06503 -0.55153,-0.10505 -0.61609,-0.38006c-0.06549,-0.27507 0.10505,-0.55106 0.38006,-0.61609c1.05467,-0.25001 2.4828,-0.221 4.29098,0.05151c0.27953,0.04252 0.47206,0.30355 0.43006,0.58302c-0.03852,0.2536 -0.25708,0.43563 -0.50611,0.43563z" fill="#7f8499"></path><path d="M25.88096,13.39292c-0.23203,0 -0.44201,-0.15853 -0.49804,-0.39456c-0.0645,-0.27507 0.10546,-0.55106 0.38104,-0.61609c0.16503,-0.03852 0.351,-0.07402 0.56058,-0.10256c0.28255,-0.03602 0.53853,0.159 0.57658,0.43859c0.03799,0.28052 -0.15853,0.53853 -0.43859,0.57658c-0.1735,0.02349 -0.3275,0.05203 -0.46353,0.08452c-0.0395,0.00899 -0.079,0.01352 -0.11804,0.01352z" fill="#707487"></path><g fill="#7f8499"><path d="M29.97843,13.4529c-0.02546,0 -0.05099,-0.00197 -0.07697,-0.00551c-0.53407,-0.08104 -1.03762,-0.13904 -1.49761,-0.1735c-0.28203,-0.021 -0.49358,-0.26654 -0.47258,-0.54857c0.021,-0.28203 0.26903,-0.4941 0.54857,-0.47258c0.48557,0.03602 1.01511,0.09751 1.5747,0.1815c0.27953,0.04252 0.47206,0.30355 0.43006,0.58302c-0.03857,0.25366 -0.25714,0.43563 -0.50617,0.43563z"></path><path d="M19.73627,11.40469c-0.24908,0 -0.46759,-0.18202 -0.50605,-0.43557c-0.042,-0.27953 0.15053,-0.54056 0.43006,-0.58302c1.80818,-0.27205 3.23682,-0.30105 4.29098,-0.05151c0.27507,0.06503 0.44555,0.34102 0.38006,0.61609c-0.06503,0.27507 -0.34206,0.44659 -0.61609,0.38006c-0.91761,-0.21706 -2.23528,-0.18301 -3.90193,0.06851c-0.02604,0.00348 -0.05151,0.00545 -0.07703,0.00545z"></path></g><g fill="#707487"><path d="M19.73627,15.50117c-0.24908,0 -0.46759,-0.18202 -0.50605,-0.43557c-0.042,-0.27953 0.15053,-0.54056 0.43006,-0.58302c1.80818,-0.27205 3.23682,-0.30105 4.29098,-0.05151c0.27507,0.06503 0.44555,0.34102 0.38006,0.61609c-0.06503,0.27507 -0.34206,0.44503 -0.61609,0.38006c-0.91761,-0.21706 -2.23528,-0.18301 -3.90193,0.06851c-0.02604,0.00342 -0.05151,0.00545 -0.07703,0.00545z"></path><path d="M23.83374,13.39292c-0.03898,0 -0.07854,-0.00447 -0.11804,-0.01352c-0.13603,-0.03254 -0.29003,-0.06102 -0.46353,-0.08452c-0.28006,-0.03799 -0.47652,-0.29601 -0.43859,-0.57658c0.03852,-0.27953 0.29502,-0.47455 0.57658,-0.43859c0.20952,0.02848 0.39555,0.06398 0.56058,0.10256c0.27553,0.06503 0.44555,0.34102 0.38104,0.61609c-0.05598,0.23551 -0.26602,0.39456 -0.49804,0.39456z"></path></g><path d="M19.73627,13.4529c-0.24908,0 -0.46759,-0.18202 -0.50605,-0.43557c-0.042,-0.27953 0.15053,-0.54056 0.43006,-0.58302c0.55953,-0.08405 1.08913,-0.14548 1.5747,-0.1815c0.28951,-0.02651 0.52757,0.19055 0.54857,0.47258c0.021,0.28203 -0.19055,0.52757 -0.47258,0.54857c-0.46011,0.03451 -0.9636,0.09246 -1.49761,0.1735c-0.0261,0.00348 -0.05157,0.00545 -0.07709,0.00545z" fill="#7f8499"></path><path d="M15.12823,37.30159v-2.04821h3.07237v2.04821z" fill="#c7cfe2"></path><path d="M22.29708,35.76546h-11.26527c-0.56562,0 -1.02411,-0.45848 -1.02411,-1.02411v-7.16885c0,-0.56562 0.45848,-1.02411 1.02411,-1.02411h11.26527c0.56562,0 1.02411,0.45848 1.02411,1.02411v7.1688c0,0.56568 -0.45848,1.02416 -1.02411,1.02416z" fill="#5b5d6e"></path><g fill="#e4eaf8"><path d="M18.71269,37.81367h-4.09648c-0.28301,0 -0.51208,-0.2293 -0.51208,-0.51208c0,-0.28278 0.22901,-0.51208 0.51208,-0.51208h4.09648c0.28301,0 0.51208,0.2293 0.51208,0.51208c-0.00006,0.28278 -0.22907,0.51208 -0.51208,0.51208z"></path><path d="M22.29708,35.76546h-11.26527c-0.56562,0 -1.02411,-0.45848 -1.02411,-1.02411v-0.51208h13.31349v0.51208c0,0.56562 -0.45848,1.02411 -1.02411,1.02411z"></path></g><path d="M22.04104,33.20517h-10.75319c-0.14142,0 -0.25604,-0.11462 -0.25604,-0.25604v-5.12058c0,-0.14142 0.11462,-0.25604 0.25604,-0.25604h10.75319c0.14142,0 0.25604,0.11462 0.25604,0.25604v5.12058c0,0.14136 -0.11468,0.25604 -0.25604,0.25604z" fill="#ffdc64"></path><path d="M37.91482,36.78957h-2.56029c-0.14142,0 -0.25604,-0.11462 -0.25604,-0.25604v-4.6085c0,-0.14142 0.11462,-0.25604 0.25604,-0.25604h2.56029c0.14142,0 0.25604,0.11462 0.25604,0.25604v4.6085c0,0.14142 -0.11462,0.25604 -0.25604,0.25604z" fill="#a0ffb4"></path><g fill="#000000" font-family="Roboto, sans-serif" font-weight="normal" font-size="14" text-anchor="start"></g><g fill="#000000" font-family="Roboto, sans-serif" font-weight="normal" font-size="14" text-anchor="start"></g><g fill="#000000" font-family="Roboto, sans-serif" font-weight="normal" font-size="14" text-anchor="start"></g><g fill="#000000" font-family="Roboto, sans-serif" font-weight="normal" font-size="14" text-anchor="start"></g><g fill="#000000" font-family="Roboto, sans-serif" font-weight="normal" font-size="14" text-anchor="start"></g><g fill="#000000" font-family="Roboto, sans-serif" font-weight="normal" font-size="14" text-anchor="start"></g><g fill="#000000" font-family="Roboto, sans-serif" font-weight="normal" font-size="14" text-anchor="start"></g><g fill="#000000" font-family="Roboto, sans-serif" font-weight="normal" font-size="14" text-anchor="start"></g><g fill="#000000" font-family="Roboto, sans-serif" font-weight="normal" font-size="14" text-anchor="start"></g><g fill="#000000" font-family="Roboto, sans-serif" font-weight="normal" font-size="14" text-anchor="start"></g><g fill="#000000" font-family="Roboto, sans-serif" font-weight="normal" font-size="14" text-anchor="start"></g><g fill="#000000" font-family="Roboto, sans-serif" font-weight="normal" font-size="14" text-anchor="start"></g><g fill="#000000" font-family="Roboto, sans-serif" font-weight="normal" font-size="14" text-anchor="start"></g><g fill="#000000" font-family="Roboto, sans-serif" font-weight="normal" font-size="14" text-anchor="start"></g><g fill="#000000" font-family="Roboto, sans-serif" font-weight="normal" font-size="14" text-anchor="start"></g></g><path d="M2,24c0,-12.15026 9.84974,-22 22,-22c12.15026,0 22,9.84974 22,22c0,12.15026 -9.84974,22 -22,22c-12.15026,0 -22,-9.84974 -22,-22z" id="base 1 5 1" fill="none" stroke-width="1"></path><path d="M2,24c0,-12.15026 9.84974,-22 22,-22c12.15026,0 22,9.84974 22,22c0,12.15026 -9.84974,22 -22,22c-12.15026,0 -22,-9.84974 -22,-22z" id="base 1 1 1" fill="none" stroke-width="1"></path><g id="Layer_1 1 1" fill="#000000" stroke-width="1" font-family="Roboto, sans-serif" font-weight="normal" font-size="14" text-anchor="start"><g></g><g></g><g></g><g></g><g></g><g></g><g></g><g></g><g></g><g></g><g></g><g></g><g></g><g></g><g></g><g></g></g><rect x="2" y="2" width="44" height="22" fill="none" stroke-width="1"></rect><path d="M2,24v-22h44v22z" fill="none" stroke-width="1"></path><path d="M2,24v-22h44v22z" fill="none" stroke-width="1"></path><path d="M2,24v-22h44v22z" fill="none" stroke-width="1"></path><path d="M2,24v-22h44v22z" fill="none" stroke-width="1"></path><g id="Layer_1 2 1" fill="#000000" stroke-width="1" font-family="Roboto, sans-serif" font-weight="normal" font-size="14" text-anchor="start"><g></g><g></g><g></g><g></g><g></g><g></g><g></g><g></g><g></g><g></g><g></g><g></g><g></g><g></g><g></g><g></g><g></g><g></g><g></g></g><rect x="2" y="2" width="44" height="22" fill="none" stroke-width="1"></rect><path d="M2,24v-22h44v22z" fill="none" stroke-width="1"></path><path d="M2,24v-22h44v22z" fill="none" stroke-width="1"></path><path d="M2,24v-22h44v22z" fill="none" stroke-width="1"></path><path d="M2,24v-22h44v22z" fill="none" stroke-width="1"></path></g></svg>