<svg version="1.1" xmlns="http://www.w3.org/2000/svg" xmlns:xlink="http://www.w3.org/1999/xlink" width="48" height="48"><defs><linearGradient x1="9.1503" y1="9.1503" x2="57.58803" y2="57.58803" gradientUnits="userSpaceOnUse" id="color-1"><stop offset="0" stop-color="#000000" stop-opacity="0.39"></stop><stop offset="1" stop-color="#000000" stop-opacity="0"></stop></linearGradient><filter id="dropshadow-base"><feColorMatrix type="matrix" values="0 0 0 0 0  0 0 0 0 0  0 0 0 0 0  0 0 0 .8 0"></feColorMatrix> <feOffset dx="0" dy="1"></feOffset> <feGaussianBlur stdDeviation="1"></feGaussianBlur> <feComposite in="SourceGraphic"></feComposite></filter><filter id="dropshadow-banner" x="-10%" y="-10%" width="120%" height="130%"><feColorMatrix type="matrix" values="0 0 0 0 0  0 0 0 0 0  0 0 0 0 0  0 0 0 .4 0"></feColorMatrix> <feOffset dx="0" dy="1"></feOffset> <feGaussianBlur stdDeviation="0.5"></feGaussianBlur> <feComposite in="SourceGraphic"></feComposite></filter></defs><g fill="none" fill-rule="nonzero" stroke="none" stroke-width="none" stroke-linecap="butt" stroke-linejoin="miter" stroke-miterlimit="10" stroke-dasharray="" stroke-dashoffset="0" font-family="none" font-weight="none" font-size="none" text-anchor="none" style="mix-blend-mode: normal"><path d="M7,43c-1.10457,0 -2,-0.89543 -2,-2v-34c0,-1.10457 0.89543,-2 2,-2h34c1.10457,0 2,0.89543 2,2v34c0,1.10457 -0.89543,2 -2,2z" id="base 1 13" fill="#0038ff" stroke-width="1"></path><path d="M9.45024,38.54976c-0.18532,-0.18532 -0.29995,-0.44135 -0.29995,-0.72416v-9.21708c0,-0.56563 0.45848,-1.02411 1.02411,-1.02411h1.02417v-1.02411c0,-0.56563 0.45848,-1.02411 1.02411,-1.02411h0.59988l-3.37232,-3.37232c-0.18532,-0.18532 -0.29995,-0.44135 -0.29995,-0.72416v-9.21702c0,-0.56568 0.45848,-1.02417 1.02411,-1.02417h1.02417v-1.02411c-0.00006,-0.56563 0.45843,-1.02411 1.02411,-1.02411h9.21708c0.28281,0 0.53884,0.11462 0.72416,0.29995l1.74827,1.74827h13.91339c0.28281,0 0.53884,0.11462 0.72416,0.29995c0,0 0,0 0,0c0,0 0,0 0,0l4.45024,4.45024v25.05129c0,1.10457 -0.89543,2 -2,2l-27.09951,0z" fill="url(#color-1)" stroke-width="1"></path><path transform="translate(-11.63928,-11.63928) scale(1.48497,1.48497)" d="M33.31035,34h-18.6207c-0.3809,0 -0.68965,-0.30875 -0.68965,-0.68965v-6.20691c0,-0.3809 0.30875,-0.68965 0.68965,-0.68965h0.68969v-0.68965c0,-0.3809 0.30875,-0.68965 0.68965,-0.68965h2.75859l0,-2.06898h-4.13793c-0.3809,0 -0.68965,-0.30875 -0.68965,-0.68965v-6.20687c0,-0.38094 0.30875,-0.68969 0.68965,-0.68969h0.68969v-0.68965c-0.00004,-0.3809 0.30871,-0.68965 0.68965,-0.68965h6.20691c0.3809,0 0.68965,0.30875 0.68965,0.68965v0.68965l10.3448,0c0.3809,0 0.68965,0.30875 0.68965,0.68965v6.20691c0,0.3809 -0.30875,0.68965 -0.68965,0.68965l-13.79312,0v2.06898h2.75867c0.3809,0 0.68965,0.30875 0.68965,0.68965v0.68965h10.3448c0.3809,0 0.68965,0.30875 0.68965,0.68965v6.20691c0,0.3809 -0.30875,0.68965 -0.68965,0.68965z" fill="none" stroke-width="0"></path><g id="Layer_1 4" stroke-width="1"><path d="M37.82559,38.8497h-27.65119c-0.56562,0 -1.02411,-0.45848 -1.02411,-1.02411v-9.21708c0,-0.56562 0.45848,-1.02411 1.02411,-1.02411h27.65119c0.56562,0 1.02411,0.45848 1.02411,1.02411v9.21708c0,0.56562 -0.45848,1.02411 -1.02411,1.02411z" fill="#e4eaf8"></path><g fill="#707487"><path d="M34.24119,30.65678h-9.21708c-0.28301,0 -0.51208,-0.2293 -0.51208,-0.51208c0,-0.28278 0.22901,-0.51208 0.51208,-0.51208h9.21708c0.28301,0 0.51208,0.2293 0.51208,0.51208c0,0.28278 -0.22907,0.51208 -0.51208,0.51208z"></path><path d="M36.2894,34.75321h-11.2653c-0.28301,0 -0.51208,-0.2293 -0.51208,-0.51208c0,-0.28278 0.22901,-0.51208 0.51208,-0.51208h11.2653c0.28301,0 0.51208,0.2293 0.51208,0.51208c0,0.28278 -0.22901,0.51208 -0.51208,0.51208z"></path></g><g fill="#7f8499"><path d="M36.2894,36.80149h-11.2653c-0.28301,0 -0.51208,-0.22901 -0.51208,-0.51208c0,-0.28301 0.22901,-0.51208 0.51208,-0.51208h11.2653c0.28301,0 0.51208,0.22901 0.51208,0.51208c0,0.28307 -0.22901,0.51208 -0.51208,0.51208z"></path><path d="M27.07238,32.705h-2.04821c-0.28301,0 -0.51208,-0.2293 -0.51208,-0.51208c0,-0.28278 0.22901,-0.51208 0.51208,-0.51208h2.04821c0.28301,0 0.51208,0.2293 0.51208,0.51208c-0.00006,0.28278 -0.22907,0.51208 -0.51208,0.51208z"></path><path d="M36.2894,32.705h-7.16881c-0.28301,0 -0.51208,-0.2293 -0.51208,-0.51208c0,-0.28278 0.22901,-0.51208 0.51208,-0.51208h7.16881c0.28301,0 0.51208,0.2293 0.51208,0.51208c0,0.28278 -0.22901,0.51208 -0.51208,0.51208z"></path></g><path d="M37.82559,22.46381h-27.65119c-0.56562,0 -1.02411,-0.45848 -1.02411,-1.02411v-9.21702c0,-0.56568 0.45848,-1.02417 1.02411,-1.02417h27.65119c0.56562,0 1.02411,0.45848 1.02411,1.02411v9.21708c0,0.56562 -0.45848,1.02411 -1.02411,1.02411z" fill="#e4eaf8"></path><g fill="#d5dced"><path d="M21.4397,21.4397h-9.21702c-1.13119,0 -2.04821,-0.91703 -2.04821,-2.04821v-8.19297h13.31351v8.19292c-0.00006,1.13125 -0.91709,2.04827 -2.04827,2.04827z"></path><path d="M21.4397,37.82559h-9.21702c-1.13119,0 -2.04821,-0.91703 -2.04821,-2.04821v-8.19297h13.31351v8.19292c-0.00006,1.13125 -0.91709,2.04827 -2.04827,2.04827z"></path></g><g fill="#707487"><path d="M34.24119,14.27089h-9.21708c-0.28301,0 -0.51208,-0.2293 -0.51208,-0.51208c0,-0.28278 0.22901,-0.51208 0.51208,-0.51208h9.21708c0.28301,0 0.51208,0.2293 0.51208,0.51208c-0.00006,0.28278 -0.22907,0.51208 -0.51208,0.51208z"></path><path d="M36.2894,18.36738h-11.2653c-0.28301,0 -0.51208,-0.2293 -0.51208,-0.51208c0,-0.28278 0.22901,-0.51208 0.51208,-0.51208h11.2653c0.28301,0 0.51208,0.2293 0.51208,0.51208c0,0.28278 -0.22901,0.51208 -0.51208,0.51208z"></path></g><g fill="#7f8499"><path d="M36.2894,20.4156h-11.2653c-0.28301,0 -0.51208,-0.22901 -0.51208,-0.51208c0,-0.28301 0.22901,-0.51208 0.51208,-0.51208h11.2653c0.28301,0 0.51208,0.22901 0.51208,0.51208c0,0.28307 -0.22901,0.51208 -0.51208,0.51208z"></path><path d="M27.07238,16.31911h-2.04821c-0.28301,0 -0.51208,-0.2293 -0.51208,-0.51208c0,-0.28278 0.22901,-0.51208 0.51208,-0.51208h2.04821c0.28301,0 0.51208,0.2293 0.51208,0.51208c-0.00006,0.28284 -0.22907,0.51208 -0.51208,0.51208z"></path><path d="M36.2894,16.31911h-7.16881c-0.28301,0 -0.51208,-0.2293 -0.51208,-0.51208c0,-0.28278 0.22901,-0.51208 0.51208,-0.51208h7.16881c0.28301,0 0.51208,0.2293 0.51208,0.51208c0,0.28284 -0.22901,0.51208 -0.51208,0.51208z"></path></g><path d="M16.31911,26.04821v-6.1447h1.02411v6.1447z" fill="#afb9d2"></path><path d="M16.31911,21.4397v-1.53619h1.02411v1.53619z" fill="#959cb5"></path><path d="M21.4397,20.4156h-9.21702c-0.56562,0 -1.02411,-0.45848 -1.02411,-1.02411v-9.21708c-0.00006,-0.56562 0.45843,-1.02411 1.02411,-1.02411h9.21708c0.56562,0 1.02411,0.45848 1.02411,1.02411v9.21708c-0.00006,0.56562 -0.45854,1.02411 -1.02417,1.02411z" fill="#ff5050"></path><path d="M20.03153,14.27089c0,-1.76468 -1.43566,-3.20034 -3.20034,-3.20034c-1.76468,0 -3.20034,1.43566 -3.20034,3.20034v1.02411c0,1.76468 1.43566,3.20034 3.20034,3.20034c0.65136,0 1.25712,-0.19664 1.76317,-0.53209l0.34462,0.34462c0.125,0.125 0.28853,0.18754 0.45251,0.18754c0.16398,0 0.32751,-0.06253 0.45251,-0.18754c0.25001,-0.25001 0.25001,-0.65507 0,-0.90514l-0.34462,-0.34462c0.33551,-0.50605 0.53215,-1.11181 0.53215,-1.76317zM18.30781,15.8666c-0.25001,-0.25001 -0.65507,-0.25001 -0.90514,0c-0.25007,0.25001 -0.25001,0.65507 0,0.90514l0.25111,0.25111c-0.25036,0.11978 -0.52711,0.19241 -0.82265,0.19241c-1.05862,0 -1.92019,-0.86134 -1.92019,-1.92019v-1.02417c0,-1.05885 0.86163,-1.92019 1.92019,-1.92019c1.05856,0 1.92019,0.86134 1.92019,1.92019v1.02411c0,0.29554 -0.07262,0.57235 -0.19241,0.82271z" fill="#ffffff"></path><path d="M21.4397,36.80149h-9.21702c-0.56562,0 -1.02411,-0.45848 -1.02411,-1.02411v-9.21708c0,-0.56562 0.45848,-1.02411 1.02411,-1.02411h9.21708c0.56562,0 1.02411,0.45848 1.02411,1.02411v9.21708c-0.00006,0.56562 -0.45854,1.02411 -1.02417,1.02411z" fill="#7df5a5"></path><path d="M20.01251,34.08614l-1.39071,-5.56365c-0.15743,-0.62752 -0.71905,-1.0661 -1.36611,-1.0661h-0.8491c-0.64706,0 -1.20863,0.43859 -1.36617,1.06663l-1.39071,5.56313c-0.0855,0.34259 0.12303,0.69005 0.46603,0.77607c0.34154,0.08602 0.69005,-0.12251 0.77607,-0.46603l0.26289,-1.05114h3.3529l0.26277,1.05114c0.07303,0.29102 0.33354,0.48505 0.62056,0.48505c0.05151,0 0.10348,-0.00603 0.15552,-0.01903c0.34311,-0.08602 0.55164,-0.43348 0.46608,-0.77607zM15.47482,32.0649l0.80786,-3.23132c0.01404,-0.05702 0.06503,-0.09705 0.12402,-0.09705h0.8491c0.05899,0 0.11004,0.04002 0.12402,0.09652l0.8078,3.23184z" fill="#ffffff"></path><g fill="#000000" font-family="Roboto, sans-serif" font-weight="normal" font-size="14" text-anchor="start"></g><g fill="#000000" font-family="Roboto, sans-serif" font-weight="normal" font-size="14" text-anchor="start"></g><g fill="#000000" font-family="Roboto, sans-serif" font-weight="normal" font-size="14" text-anchor="start"></g><g fill="#000000" font-family="Roboto, sans-serif" font-weight="normal" font-size="14" text-anchor="start"></g><g fill="#000000" font-family="Roboto, sans-serif" font-weight="normal" font-size="14" text-anchor="start"></g><g fill="#000000" font-family="Roboto, sans-serif" font-weight="normal" font-size="14" text-anchor="start"></g><g fill="#000000" font-family="Roboto, sans-serif" font-weight="normal" font-size="14" text-anchor="start"></g><g fill="#000000" font-family="Roboto, sans-serif" font-weight="normal" font-size="14" text-anchor="start"></g><g fill="#000000" font-family="Roboto, sans-serif" font-weight="normal" font-size="14" text-anchor="start"></g><g fill="#000000" font-family="Roboto, sans-serif" font-weight="normal" font-size="14" text-anchor="start"></g><g fill="#000000" font-family="Roboto, sans-serif" font-weight="normal" font-size="14" text-anchor="start"></g><g fill="#000000" font-family="Roboto, sans-serif" font-weight="normal" font-size="14" text-anchor="start"></g><g fill="#000000" font-family="Roboto, sans-serif" font-weight="normal" font-size="14" text-anchor="start"></g><g fill="#000000" font-family="Roboto, sans-serif" font-weight="normal" font-size="14" text-anchor="start"></g><g fill="#000000" font-family="Roboto, sans-serif" font-weight="normal" font-size="14" text-anchor="start"></g></g><path d="M2,24c0,-12.15026 9.84974,-22 22,-22c12.15026,0 22,9.84974 22,22c0,12.15026 -9.84974,22 -22,22c-12.15026,0 -22,-9.84974 -22,-22z" id="base 1 9 1" fill="none" stroke-width="1"></path><path d="M2,24c0,-12.15026 9.84974,-22 22,-22c12.15026,0 22,9.84974 22,22c0,12.15026 -9.84974,22 -22,22c-12.15026,0 -22,-9.84974 -22,-22z" id="base 1 5 1" fill="none" stroke-width="1"></path><path d="M2,24c0,-12.15026 9.84974,-22 22,-22c12.15026,0 22,9.84974 22,22c0,12.15026 -9.84974,22 -22,22c-12.15026,0 -22,-9.84974 -22,-22z" id="base 1 1 1" fill="none" stroke-width="1"></path><g id="Layer_1 1 1" fill="#000000" stroke-width="1" font-family="Roboto, sans-serif" font-weight="normal" font-size="14" text-anchor="start"><g></g><g></g><g></g><g></g><g></g><g></g><g></g><g></g><g></g><g></g><g></g><g></g><g></g><g></g><g></g><g></g></g><rect x="2" y="2" width="44" height="22" fill="none" stroke-width="1"></rect><path d="M2,24v-22h44v22z" fill="none" stroke-width="1"></path><path d="M2,24v-22h44v22z" fill="none" stroke-width="1"></path><path d="M2,24v-22h44v22z" fill="none" stroke-width="1"></path><path d="M2,24v-22h44v22z" fill="none" stroke-width="1"></path><g id="Layer_1 2 1" fill="#000000" stroke-width="1" font-family="Roboto, sans-serif" font-weight="normal" font-size="14" text-anchor="start"><g></g><g></g><g></g><g></g><g></g><g></g><g></g><g></g><g></g><g></g><g></g><g></g><g></g><g></g><g></g><g></g><g></g><g></g><g></g></g><rect x="2" y="2" width="44" height="22" fill="none" stroke-width="1"></rect><path d="M2,24v-22h44v22z" fill="none" stroke-width="1"></path><path d="M2,24v-22h44v22z" fill="none" stroke-width="1"></path><path d="M2,24v-22h44v22z" fill="none" stroke-width="1"></path><path d="M2,24v-22h44v22z" fill="none" stroke-width="1"></path><g id="Layer_1 3 1" fill="#000000" stroke-width="1" font-family="Roboto, sans-serif" font-weight="normal" font-size="14" text-anchor="start"><g></g><g></g><g></g><g></g><g></g><g></g><g></g><g></g><g></g><g></g><g></g><g></g><g></g><g></g><g></g><g></g><g></g><g></g><g></g><g></g></g><rect x="2" y="2" width="44" height="22" fill="none" stroke-width="1"></rect><path d="M2,24v-22h44v22z" fill="none" stroke-width="1"></path><path d="M2,24v-22h44v22z" fill="none" stroke-width="1"></path><path d="M2,24v-22h44v22z" fill="none" stroke-width="1"></path><path d="M2,24v-22h44v22z" fill="none" stroke-width="1"></path></g></svg>